<?xml version="1.0" encoding="UTF-8"?>
<svg width="1200pt" height="1200pt" version="1.1" viewBox="0 0 1200 1200" xmlns="http://www.w3.org/2000/svg">
 <g fill="#fff" fill-rule="evenodd">
  <path d="m507.7 558.98c10.516 31.406 34.27 56.852 64.641 69.578 5.9766-18.047 15.578-34.531 28.043-48.414-19.348-14.801-43.48-23.621-69.578-23.621-7.9141 0.12109-15.574 0.90234-23.105 2.4609z"/>
  <path d="m725.52 558.98c-7.3945-1.5586-15.188-2.3398-22.973-2.3398-26.09 0-50.23 8.832-69.578 23.625 12.461 13.895 22.066 30.242 28.043 48.414 30.238-12.848 53.996-38.289 64.508-69.699z"/>
  <path d="m567.03 650.36c-37.906-14.793-67.766-45.949-80.609-84.887-41.406 17.387-70.613 58.281-70.613 105.92 0 63.34 51.531 114.88 114.88 114.88 26.086 0 50.23-8.832 69.574-23.629-21.672-24.27-34.914-56.199-34.914-91.246 0.12891-7.1367 0.64844-14.152 1.6914-21.031z"/>
  <path d="m294.57 949.95c0 36.844-29.867 66.715-66.715 66.715s-66.719-29.871-66.719-66.715c0-36.848 29.871-66.719 66.719-66.719s66.715 29.871 66.715 66.719"/>
  <path d="m639.71 635.18c-4.9375-14.793-12.855-28.301-22.98-39.852-10.121 11.422-18.043 24.922-22.973 39.852 7.3945 1.5547 15.188 2.3359 22.973 2.3359s15.453-0.78516 22.98-2.3359z"/>
  <path d="m644.65 656.85c-9.0898 1.9453-18.43 2.8594-28.035 2.8594-9.6133 0-18.953-1.0391-28.043-2.8594-0.64453 4.8047-0.90625 9.7344-0.90625 14.672 0 29.203 10.898 55.816 28.949 76.062 18.043-20.25 28.945-46.992 28.945-76.062 0.007812-5.0625-0.25781-9.8672-0.91016-14.672z"/>
  <path d="m530.81 534.45c32.445 0 62.305 11.414 85.93 30.375 23.496-18.953 53.352-30.375 85.934-30.375 9.6055 0 18.949 1.0352 28.035 2.8555 0.64844-4.8008 0.90625-9.7344 0.90625-14.672 0-63.344-51.531-114.88-114.88-114.88-63.34 0-114.88 51.531-114.88 114.88 0 4.9375 0.39062 9.8711 0.91016 14.672 9.0898-1.8203 18.438-2.8555 28.035-2.8555z"/>
  <path d="m1038.9 238.89c0 30.68-24.871 55.551-55.555 55.551-30.68 0-55.551-24.871-55.551-55.551 0-30.684 24.871-55.555 55.551-55.555 30.684 0 55.555 24.871 55.555 55.555"/>
  <path d="m616.62 293.4c-172.12 0-312.05 140.06-312.05 312.05 0 172.12 140.06 312.04 312.05 312.04 172.12 0 312.04-140.05 312.04-312.04 0.12891-171.98-139.93-312.05-312.04-312.05zm85.922 515.19c-32.449 0-62.305-11.422-85.93-30.379-23.496 18.953-53.352 30.379-85.93 30.379-75.547 0-137.07-61.531-137.07-137.07 0-58.152 36.344-107.86 87.484-127.73-1.0352-6.8789-1.6797-13.891-1.6797-21.156 0-75.543 61.523-137.07 137.07-137.07 75.539 0 137.07 61.531 137.07 137.07 0 7.1367-0.52344 14.273-1.6875 21.156 51.145 19.863 87.484 69.703 87.484 127.73 0.26172 75.539-61.266 137.07-136.82 137.07z"/>
  <path d="m746.81 565.47c-12.852 38.809-42.578 70.094-80.609 84.887 1.0391 6.8789 1.6836 13.895 1.6836 21.156 0 35.043-13.234 66.984-34.922 91.25 19.348 14.793 43.48 23.621 69.578 23.621 63.344 0 114.88-51.531 114.88-114.88-0.13281-47.625-29.203-88.645-70.605-106.04z"/>
 </g>
</svg>
