<?xml version="1.0" standalone="no"?>
<!DOCTYPE svg PUBLIC "-//W3C//DTD SVG 20010904//EN"
 "http://www.w3.org/TR/2001/REC-SVG-20010904/DTD/svg10.dtd">
<svg version="1.0" xmlns="http://www.w3.org/2000/svg"
 width="4686.000000pt" height="651.000000pt" viewBox="0 0 4686.000000 651.000000"
 preserveAspectRatio="xMidYMid meet">

<g transform="translate(0.000000,651.000000) scale(0.100000,-0.100000)"
fill="#FFFFFF" stroke="none">
<path d="M23990 3255 l0 -3255 50 0 50 0 0 3255 0 3255 -50 0 -50 0 0 -3255z"/>
<path d="M15985 5664 c-416 -40 -729 -184 -958 -441 -151 -169 -264 -437 -302
-713 -19 -134 -19 -365 0 -500 13 -99 67 -312 84 -335 4 -5 16 -30 25 -54 77
-198 274 -417 485 -540 148 -87 375 -159 574 -182 149 -17 484 -6 607 20 423
91 708 291 897 631 124 223 188 571 163 881 -53 657 -434 1086 -1070 1205
-131 24 -393 39 -505 28z m321 -610 c123 -25 215 -75 310 -169 63 -63 90 -98
122 -165 125 -252 123 -626 -3 -880 -125 -250 -362 -377 -663 -356 -96 7 -202
36 -287 79 -21 11 -78 58 -125 106 -100 101 -145 182 -187 336 -25 90 -27 116
-27 265 0 147 3 176 27 268 41 155 93 251 191 347 94 92 178 140 295 166 97
22 247 23 347 3z"/>
<path d="M310 4275 l0 -1345 343 2 342 3 5 623 5 624 115 -142 c63 -79 140
-173 170 -210 192 -235 448 -549 567 -697 62 -76 126 -153 142 -170 l30 -33
435 0 c297 0 436 3 436 10 0 8 -233 290 -294 356 -6 7 -24 29 -41 49 -16 21
-73 88 -125 150 -52 62 -153 181 -224 264 -70 84 -124 156 -120 160 5 4 34 13
64 21 30 7 88 28 129 47 233 105 387 286 447 523 27 107 27 375 0 475 -26 95
-84 217 -140 292 -100 136 -289 255 -491 310 l-100 28 -847 3 -848 3 0 -1346z
m1545 740 c55 -27 123 -97 148 -153 30 -68 36 -204 11 -286 -15 -50 -29 -72
-79 -122 -92 -93 -100 -94 -558 -94 l-377 0 0 340 0 341 408 -3 c382 -3 409
-4 447 -23z"/>
<path d="M4627 5583 c-9 -21 -50 -119 -92 -218 -42 -99 -87 -205 -100 -235
-13 -30 -40 -92 -59 -136 -20 -45 -36 -84 -36 -88 0 -3 -16 -40 -35 -82 -19
-41 -35 -77 -35 -79 0 -4 -262 -619 -291 -681 -10 -24 -19 -45 -19 -48 0 -3
-17 -45 -39 -93 -21 -49 -69 -160 -106 -248 -37 -88 -80 -189 -96 -225 -115
-262 -216 -506 -212 -512 2 -5 164 -8 358 -8 l355 0 14 23 c8 12 26 51 40 87
13 36 33 85 44 110 10 25 27 66 36 93 l18 47 623 0 623 0 10 -27 c6 -16 26
-68 45 -118 19 -49 38 -101 42 -115 4 -14 16 -42 26 -62 l19 -38 390 0 c214 0
391 3 393 8 2 4 -20 63 -50 132 -30 69 -75 174 -99 234 -25 59 -58 137 -75
172 -16 36 -29 67 -29 70 0 4 -16 43 -36 88 -19 44 -46 106 -59 136 -13 30
-58 136 -100 235 -42 99 -87 205 -100 235 -35 81 -147 341 -190 445 -21 50
-52 124 -70 165 -18 41 -49 116 -70 165 -21 50 -49 113 -61 142 -13 28 -24 54
-24 57 0 3 -18 48 -41 98 -38 88 -72 167 -114 266 l-18 42 -382 0 -382 0 -16
-37z m401 -770 c60 -154 191 -495 214 -557 16 -44 35 -93 43 -110 8 -17 26
-62 40 -101 15 -38 35 -92 45 -120 l18 -50 -385 -3 c-212 -1 -388 -1 -390 1
-2 2 18 55 43 118 26 63 59 146 74 184 15 39 58 144 95 235 37 91 84 208 105
260 79 200 77 197 98 143z"/>
<path d="M7380 4275 l0 -1345 348 2 347 3 5 820 5 820 289 -400 c159 -220 317
-437 350 -483 71 -97 86 -117 146 -203 24 -35 48 -68 52 -74 12 -15 139 -189
253 -348 l99 -137 396 2 395 3 3 1343 2 1342 -350 0 -350 0 -2 -837 -3 -838
-65 90 c-35 50 -68 95 -72 100 -13 16 -156 212 -258 354 -106 146 -207 284
-254 348 -17 23 -50 68 -73 100 -23 32 -66 92 -97 133 -30 41 -66 91 -80 110
-28 39 -108 149 -236 324 l-85 116 -382 0 -383 0 0 -1345z"/>
<path d="M11272 4278 l3 -1343 560 -3 c564 -3 768 4 955 34 183 28 381 97 523
180 387 227 587 666 564 1239 -7 164 -16 224 -54 360 -56 202 -136 340 -282
486 -201 201 -390 288 -796 366 -66 13 -202 17 -778 20 l-697 4 2 -1343z
m1401 726 c118 -43 189 -86 269 -167 155 -156 226 -382 199 -635 -24 -221 -88
-369 -216 -497 -96 -96 -186 -146 -320 -175 -77 -17 -129 -20 -362 -20 l-273
0 0 766 0 766 308 -4 307 -3 88 -31z"/>
<path d="M18550 4281 c0 -1212 2 -1339 16 -1345 9 -3 166 -6 350 -6 l334 0 2
824 3 824 57 -76 c31 -43 91 -124 132 -182 161 -225 202 -282 222 -308 11 -15
161 -223 334 -462 172 -239 322 -446 332 -460 11 -14 42 -55 69 -93 l50 -67
397 2 397 3 3 1343 2 1342 -350 0 -350 0 -2 -841 -3 -841 -28 39 c-100 136
-143 194 -178 243 -57 80 -191 263 -212 291 -10 13 -68 94 -130 179 -62 85
-140 193 -174 240 -65 89 -166 227 -215 295 -16 22 -54 74 -84 115 -31 41 -74
101 -97 133 -23 32 -57 78 -75 103 l-33 44 -384 0 -385 0 0 -1339z"/>
<path d="M26690 4460 l0 -610 343 -2 342 -3 3 -1202 2 -1203 675 0 675 0 0
1205 0 1205 363 2 362 3 3 608 2 607 -1385 0 -1385 0 0 -610z"/>
<path d="M29860 3255 l0 -1815 685 0 685 0 0 1815 0 1815 -685 0 -685 0 0
-1815z"/>
<path d="M32817 5047 c-24 -36 -547 -1086 -547 -1097 0 -6 33 -10 80 -10 44 0
80 -3 80 -6 0 -3 -76 -102 -169 -220 -114 -146 -173 -230 -184 -262 -32 -94
-225 -657 -232 -674 -7 -16 1 -18 89 -18 53 0 96 -3 96 -6 0 -4 -37 -59 -83
-123 -46 -64 -117 -163 -159 -221 l-75 -105 -97 -285 c-54 -157 -110 -322
-126 -367 l-28 -83 89 0 c50 0 89 -4 89 -10 0 -5 -9 -32 -20 -60 -11 -28 -20
-53 -20 -55 0 -3 1107 -5 2460 -5 l2460 0 -6 27 c-4 16 -13 46 -21 67 -7 22
-10 43 -6 46 5 4 41 15 81 26 52 13 71 22 67 31 -2 8 -57 173 -120 367 l-116
353 -144 195 c-80 108 -145 200 -145 206 0 5 36 12 79 13 44 2 82 7 86 11 4 3
-46 167 -111 365 l-117 358 -169 225 c-93 123 -165 226 -159 228 6 2 48 -4 94
-12 46 -9 91 -16 100 -16 13 0 -8 50 -92 213 -269 520 -356 690 -414 805 l-62
122 -75 0 -75 0 -180 -252 c-99 -138 -258 -359 -352 -491 -95 -133 -173 -244
-173 -249 0 -4 40 -9 89 -10 l90 -3 -122 -95 -121 -95 -157 -305 c-87 -168
-158 -310 -158 -316 -1 -7 33 -17 79 -24 44 -7 80 -15 80 -19 0 -4 -6 -15 -14
-26 -7 -11 -55 -102 -106 -202 -51 -101 -95 -183 -99 -183 -6 0 -86 162 -108
217 -3 8 18 14 66 19 39 3 71 10 71 15 0 4 -30 70 -66 146 -37 76 -86 180
-110 230 -41 88 -65 122 -455 638 -5 7 27 9 93 7 l100 -4 -334 499 -335 498
-70 3 c-64 3 -71 1 -86 -21z"/>
<path d="M36950 3255 l0 -1815 1148 2 1147 3 80 23 c206 60 363 144 483 257
126 118 202 250 248 430 26 101 28 124 28 290 0 150 -4 194 -21 266 -74 294
-255 479 -570 581 l-63 20 101 51 c168 83 278 209 340 391 72 208 63 503 -22
718 -120 305 -432 523 -834 583 -87 13 -255 15 -1084 15 l-981 0 0 -1815z
m1555 900 c104 -27 162 -91 172 -189 12 -116 -37 -196 -146 -237 -45 -17 -80
-22 -181 -23 l-125 -1 -3 233 -2 232 113 0 c69 0 136 -6 172 -15z m114 -1304
c80 -28 125 -61 159 -120 21 -37 26 -58 27 -116 0 -93 -31 -156 -99 -202 -78
-53 -132 -65 -318 -70 l-168 -5 0 272 0 272 168 -4 c139 -4 178 -8 231 -27z"/>
<path d="M40440 3255 l0 -1815 1250 0 1250 0 0 495 0 495 -590 0 -590 0 0 170
0 170 520 0 520 0 0 485 0 485 -520 0 -520 0 0 155 0 155 575 0 575 0 0 510 0
510 -1235 0 -1235 0 0 -1815z"/>
<path d="M43430 3255 l0 -1815 660 0 660 0 0 543 c1 488 2 540 16 522 14 -19
100 -179 274 -510 40 -77 76 -144 80 -150 4 -5 44 -80 88 -165 44 -85 91 -174
104 -197 l23 -43 753 0 c413 0 752 3 752 8 -1 4 -115 180 -255 392 -473 716
-680 1034 -678 1038 1 3 38 16 83 29 411 118 637 523 590 1057 -55 639 -448
1006 -1170 1096 -53 6 -432 10 -1032 10 l-948 0 0 -1815z m1674 819 c68 -26
139 -92 166 -155 46 -109 36 -269 -24 -356 -67 -98 -162 -133 -363 -133 l-133
0 0 336 0 336 153 -4 c118 -4 163 -9 201 -24z"/>
<path d="M14666 2358 c-72 -155 -86 -187 -86 -192 0 -3 38 -6 83 -6 l84 0 79
87 c43 48 96 105 117 127 20 22 37 43 37 48 0 4 -63 8 -140 8 l-140 0 -34 -72z"/>
<path d="M2345 2104 c-52 -6 -159 -32 -210 -52 -128 -49 -271 -204 -319 -345
-54 -158 -61 -403 -16 -557 75 -256 265 -410 546 -442 221 -25 438 48 567 192
62 69 113 164 139 257 29 107 32 372 4 478 -41 158 -143 299 -272 378 -106 64
-302 105 -439 91z m242 -271 c93 -47 156 -125 188 -237 14 -47 16 -88 13 -215
-4 -149 -5 -159 -34 -221 -54 -115 -126 -178 -236 -206 -200 -51 -395 69 -445
275 -18 76 -18 290 1 361 37 141 139 242 269 270 73 16 185 3 244 -27z"/>
<path d="M5530 2100 c-240 -31 -412 -162 -499 -380 -38 -97 -51 -177 -51 -320
1 -157 19 -253 70 -357 78 -158 221 -274 395 -318 200 -51 438 -13 585 93 169
122 260 326 260 580 0 285 -102 494 -298 615 -113 69 -309 107 -462 87z m259
-263 c25 -11 72 -46 103 -77 50 -50 59 -66 82 -141 46 -149 33 -380 -27 -496
-27 -51 -105 -123 -161 -149 -143 -65 -324 -27 -421 88 -39 45 -81 141 -95
216 -26 128 -2 314 53 418 39 75 144 149 232 165 65 12 183 0 234 -24z"/>
<path d="M275 2068 c-3 -7 -4 -310 -3 -673 l3 -660 138 -3 137 -3 0 281 0 280
63 0 c125 -1 181 -28 249 -120 33 -46 90 -129 223 -327 l76 -113 165 0 c154 0
164 1 155 17 -6 10 -30 48 -53 85 -24 37 -67 107 -97 155 -106 171 -185 264
-260 309 -17 10 -31 21 -31 24 0 3 29 13 65 22 161 43 258 156 272 317 15 179
-64 325 -207 385 -64 26 -213 36 -553 36 -261 0 -339 -3 -342 -12z m736 -241
c108 -56 118 -205 18 -279 -37 -28 -136 -39 -314 -36 l-160 3 -3 168 -2 167
208 0 c198 0 211 -1 253 -23z"/>
<path d="M3480 1405 l0 -677 348 5 c359 4 385 7 482 51 102 46 189 143 244
271 48 112 59 196 53 395 -5 167 -12 210 -48 287 -10 24 -19 47 -19 52 0 17
-73 116 -116 158 -57 55 -114 88 -189 109 -50 14 -118 18 -407 22 l-348 4 0
-677z m666 416 c71 -31 118 -83 151 -166 26 -67 28 -77 28 -250 0 -163 -2
-186 -23 -247 -32 -91 -57 -126 -122 -162 l-55 -31 -182 -3 -183 -4 0 447 0
447 168 -4 c147 -3 173 -7 218 -27z"/>
<path d="M6690 1406 l0 -676 135 0 135 0 0 248 0 248 218 11 c247 14 310 28
393 89 62 45 122 134 140 206 6 29 12 89 12 133 0 44 -6 104 -12 133 -17 70
-78 161 -137 204 -91 67 -116 70 -521 76 l-363 4 0 -676z m660 412 c60 -35 90
-89 90 -159 0 -63 -21 -103 -73 -143 -45 -34 -116 -46 -279 -46 l-128 0 0 183
c0 101 3 187 8 191 4 4 81 6 172 4 157 -3 167 -4 210 -30z"/>
<path d="M8341 1968 c-24 -62 -57 -144 -72 -183 -26 -67 -74 -188 -153 -395
-21 -52 -44 -109 -52 -127 -7 -17 -14 -34 -14 -37 0 -6 -17 -50 -136 -353 -26
-65 -49 -124 -51 -131 -4 -10 26 -12 143 -10 l148 3 24 65 c12 36 36 101 51
145 l28 80 272 0 273 0 44 -115 c25 -63 51 -130 59 -147 l15 -33 145 0 c81 0
145 4 145 9 0 9 -474 1199 -504 1266 -8 17 -17 40 -21 53 -6 22 -10 22 -154
22 l-147 0 -43 -112z m223 -305 c15 -43 43 -118 61 -168 18 -49 44 -120 58
-157 l25 -68 -178 0 -179 0 11 33 c10 30 33 93 113 315 20 53 38 103 40 110 9
26 21 9 49 -65z"/>
<path d="M9550 1405 l0 -675 135 0 135 0 0 281 0 282 93 -5 c111 -6 140 -19
199 -90 44 -52 63 -80 236 -338 l86 -130 164 0 c133 0 163 3 159 13 -3 8 -31
55 -64 105 -32 50 -87 137 -123 193 -73 115 -152 205 -219 252 l-45 31 66 17
c160 40 249 136 278 298 29 163 -62 348 -200 403 -69 28 -212 38 -552 38
l-348 0 0 -675z m753 412 c47 -36 67 -75 67 -132 0 -144 -74 -178 -380 -173
l-165 3 -3 155 c-1 85 0 160 3 168 4 11 46 13 223 10 l219 -3 36 -28z"/>
<path d="M11487 2073 c-3 -5 -37 -91 -77 -193 -40 -102 -96 -246 -125 -320
-30 -74 -69 -175 -88 -225 -37 -95 -70 -179 -162 -415 -32 -80 -61 -155 -66
-167 l-9 -23 148 0 148 0 20 58 c12 31 36 99 54 150 l33 92 271 0 271 0 19
-52 c10 -29 23 -64 29 -78 6 -14 22 -56 36 -95 l26 -70 153 -3 152 -3 -19 48
c-76 192 -186 467 -206 513 -13 30 -35 84 -48 120 -27 71 -169 427 -221 555
-19 44 -36 88 -39 98 -6 15 -22 17 -151 17 -80 0 -147 -3 -149 -7z m167 -380
c26 -70 70 -188 101 -268 15 -38 34 -89 41 -112 l13 -43 -178 0 -179 0 14 38
c7 20 34 93 59 162 25 69 58 158 71 198 14 39 29 72 34 72 4 0 15 -21 24 -47z"/>
<path d="M12650 1405 l0 -675 130 0 130 0 2 432 3 433 33 -55 c18 -30 64 -104
102 -165 38 -60 84 -135 102 -165 18 -30 36 -59 40 -65 5 -5 43 -66 84 -135
42 -69 91 -147 108 -175 18 -27 40 -62 50 -77 l16 -28 140 0 140 0 0 675 0
675 -130 0 -130 0 0 -441 c0 -265 -4 -438 -9 -435 -5 4 -27 36 -48 72 -21 36
-51 88 -68 115 -16 27 -58 95 -92 151 -35 57 -95 155 -134 218 -39 63 -92 149
-117 190 -25 41 -54 87 -64 103 l-19 27 -135 0 -134 0 0 -675z"/>
<path d="M14583 2063 c-3 -10 -16 -43 -28 -73 -13 -30 -57 -145 -99 -255 -42
-110 -87 -225 -100 -255 -13 -30 -29 -73 -36 -95 -7 -22 -16 -44 -20 -50 -4
-5 -20 -44 -35 -85 -24 -69 -47 -127 -156 -404 -21 -54 -39 -102 -39 -107 0
-5 65 -9 144 -9 l145 0 19 52 c10 29 34 97 53 150 l34 98 271 0 272 0 10 -27
c6 -16 27 -71 47 -123 20 -52 41 -107 47 -122 l10 -28 149 0 c82 0 149 2 149
4 0 5 -209 527 -225 563 -8 17 -15 34 -15 38 0 3 -16 43 -34 88 -37 88 -121
297 -165 412 -15 39 -33 84 -40 100 -7 17 -23 55 -35 85 l-21 55 -148 3 c-134
2 -148 1 -154 -15z m193 -419 c17 -49 55 -149 83 -223 28 -74 51 -138 51 -143
0 -4 -79 -8 -175 -8 -96 0 -175 1 -175 3 0 5 40 118 85 242 20 55 46 128 58
163 11 34 26 61 31 59 6 -2 25 -44 42 -93z"/>
</g>
</svg>
